<mxfile host="app.diagrams.net" agent="Mozilla/5.0 (Windows NT 10.0; Win64; x64) AppleWebKit/537.36 (KHTML, like Gecko) Chrome/129.0.0.0 Safari/537.36" version="24.7.17">
  <diagram name="SAP_Task_Center_L0" id="JVD7V4Hc1gZ7aj6R_SuA">
    <mxGraphModel dx="1434" dy="780" grid="1" gridSize="10" guides="1" tooltips="1" connect="1" arrows="1" fold="1" page="1" pageScale="1" pageWidth="827" pageHeight="1169" math="0" shadow="0">
      <root>
        <mxCell id="0" />
        <mxCell id="1" parent="0" />
        <mxCell id="IrzSOC0ikjODqD1h2LZV-1" value="" style="rounded=1;whiteSpace=wrap;html=1;strokeColor=#0070F2;fillColor=#EBF8FF;arcSize=32;absoluteArcSize=1;imageWidth=64;imageHeight=64;strokeWidth=1.5;" vertex="1" parent="1">
          <mxGeometry x="30" y="40" width="478" height="400" as="geometry" />
        </mxCell>
        <mxCell id="IrzSOC0ikjODqD1h2LZV-2" value="" style="rounded=1;whiteSpace=wrap;html=1;strokeColor=#0070F2;strokeWidth=1.5;arcSize=16;fillColor=#FFFFFF;perimeterSpacing=0;absoluteArcSize=1;" vertex="1" parent="1">
          <mxGeometry x="50" y="94.13" width="439" height="315.87" as="geometry" />
        </mxCell>
        <mxCell id="IrzSOC0ikjODqD1h2LZV-7" value="&lt;font color=&quot;#1a2733&quot; face=&quot;arial&quot; style=&quot;font-size: 16px;&quot;&gt;&lt;b style=&quot;font-size: 16px;&quot;&gt;ECC&lt;/b&gt;&lt;/font&gt;" style="text;html=1;align=center;verticalAlign=middle;resizable=0;points=[];autosize=1;strokeColor=none;fillColor=none;fontSize=12;fontColor=default;fontFamily=Helvetica;strokeWidth=1.5;" vertex="1" parent="1">
          <mxGeometry x="85" y="55.999999999999986" width="60" height="30" as="geometry" />
        </mxCell>
        <mxCell id="IrzSOC0ikjODqD1h2LZV-42" value="" style="image;sketch=0;aspect=fixed;html=1;points=[];align=center;fontSize=12;image=img/lib/mscae/SAP_HANA_on_Azure.svg;" vertex="1" parent="1">
          <mxGeometry x="50" y="57.5" width="50" height="25" as="geometry" />
        </mxCell>
        <mxCell id="IrzSOC0ikjODqD1h2LZV-55" style="edgeStyle=orthogonalEdgeStyle;rounded=0;orthogonalLoop=1;jettySize=auto;html=1;entryX=0.5;entryY=0;entryDx=0;entryDy=0;" edge="1" parent="1" source="IrzSOC0ikjODqD1h2LZV-44" target="IrzSOC0ikjODqD1h2LZV-52">
          <mxGeometry relative="1" as="geometry" />
        </mxCell>
        <mxCell id="IrzSOC0ikjODqD1h2LZV-44" value="" style="shape=image;verticalLabelPosition=bottom;labelBackgroundColor=default;verticalAlign=top;aspect=fixed;imageAspect=0;image=data:image/png,iVBORw0KGgoAAAANSUhEUgAABAAAAAINCAYAAACgUw1nAAAABmJLR0QA/wD/AP+gvaeTAAAgAElEQVR4nOzdeWCddZX/8c95btq0LIUCgoD+UNCZ0bI1N6XiRhVQZ1xmfmr96TDMIG2SUkTFjUWWWFYdFrXQNkkpjLjNxHVUENeiMtg2Ny0wBRcWQQEFpJQCXZLc8/sjFVm6JOm93/Pce9+v/4DkOR8xDc9z7vM9RwIAAAAAAAAAAAAAAAAAAAAAAAAAAAAAAAAAAAAAAAAAAAAAAAAAAAAAAAAAAAAAAAAAAAAAAAAAAAAAAAAAAAAAAAAAAAAAAAAAAAAAAAAAAAAAAAAAAAAAAAAAAAAAAAAAAAAAAAAAAAAAAAAAAAAAAAAAAAAAAAAAAAAAAAAAAAAAAAAAAAAAAAAAAAAAAAAAAAAAAAAAAAAAAAAAAAAAAAAAAAAAAAAAAAAAAAAAAAAAAAAAAAAAAAAAAAAAAAAAAAAAAAAAAAAAAAAAAAAAAAAAAAAAAAAAAAAAAAAAAAAAAAAAAAAAAAAAAAAAAAAAAAAAAAAAAAAAAAAAAAAAAAAAAAAAAAAAAAAAAAAAAAAAAAAAAAAAAAAAAAAAAAAAAAAAAAAAAAAAAAAAAAAAAAAAAAAAAAAAAAAAAAAAAAAAAAAAAAAAAAAAAAAAAAAAAAAAAAAAAAAAAAAAAAAAAAAAAAAAAAAAAAAAAAAAAAAAAAAAAAAAAAAAAAAAAAAAAAAAAAAAAAAAAAAAAAAAAAAAAAAAAAAAAAAAAAAAAAAAAAAAAAAAAAAAAAAAAAAAAAAAAAAAAAAAAAAAAAAAAAAAAAAAAAAAAAAAAAAAAAAAAAAAAAAAAAAAAAAAAAAAAAAAAAAAAAAAAAAAAAAAAAAAAAAAAAAAAAAAAAAAAAAAAAAAAAAAAAAAAAAAAAAAAAAAAAAAAAAAAAAAAAAAAAAAAAAAAAAAAAAAAAAAAAAAAAAAAAAAAAAAAAAAAAAAAAAAAAAAAAAAAAAAAAAAAAAAAAAAAAAAAAAAAAAAAAAAAAAAAAAAAAAAAAAAAAAAAAAAAAAAAAAAAAAAAAAAAAAAAAAAAAAAAAAAAAAAAAAAAAAAAAAAAAAAAAAAAAAAAAAAAAAAAAAAAAAAAAAAAAAAAAAAAAAAAAAAAAAAAAAAAAAAAAAAAAAAAAAAAEAIiw4AjJVLpsM7XqaCT5PUItkL5b6HzPeUskJ0PgCVVB6S2+Myf0yyB+S2Spmtkpf/10rdA9HpAAAAagENANQUnzmzoN/t/gaV9V7J/lHSXtGZAIRaK9N3JPuadtl4gy29ZkN0IAAAgLyiAYCa4Icev7PGTThJso9KemF0HgC59CeZLlPz4EK7acm66DAAAAB5QwMAueYzOpu07sEPSn66pBdE5wFQE9ZI/imV9p9v6ixHhwEAAMgLGgDILW+dc7DK5SUyTYvOAqAW2S+VlWfbip7V0UkAAADyIIsOAGyJF9s+JC+XePgHMHb+KpVthbe0vSc6CQAAQB7wBgByxWfOLOju3S+X7JToLADqhss0T33dnzLJo8MAAABEoQGA3PBi+zjJezdP9weACvNPW6nn9OgUAAAAUTgCgFxwyWTq4uEfQPXYaV5s+1h0CgAAgCi8AYBc8GL7RZL4ZA5Atbnc3m39Xd+IDgIAAJAaDQCE85a2N8vsevHzCCCNNcqaDrMVC34fHQQAACAljgAglB9x8p4yu1o8/ANIZ7LKQz3O7x0AANBgaAAg1tCm+ZL2jY4BoNH4m9Xa8a7oFAAAACnx6QfCeLG9RVKf+DkEEOPX2nW/g21p52B0EAAAgBR4AwCB/Dzx8A8gzt/q8QffGx0CAAAgFRoACOHT2qZJ9g/ROQA0uMznRkcAAABIhQYAYpTt/dERAECuI/2Itr+JjgEAAJACDQAk51Nmjpf0nugcACBJGrT3RUcAAABIgQYA0psw+VhJe0bHAABJktnR0REAAABSoAGA9ExHRUcAgL/y1s1vJgEAANQ1GgBIz+1V0REA4Bkmavweh0aHAAAAqDYaAEjKZ3Q2Sd4anQMAnsV0UHQEAACAaqMBgLTW/HEfSROjYwDAs5jvEx0BAACg2mgAIK1x2js6AgA8n70wOgEAAEC10QBAWmU+ZQOQS+OiAwAAAFQbDQCkxk02gPwxfzI6AgAAQLXRAEBahfL66AgA8Dxu/G4CAAB1jwYA0vICN9kA8sfLf4qOAAAAUG00AJDWoD8UHQEAnicr3B4dAQAAoNpoACCtlz96t6SN0TEA4BlczZvuiA4BAABQbTQAkJT19g5J+nV0DgB4htvtpiXrokMAAABUGw0ARFgZHQAAnuE70QEAAABSoAGA9Nyvi44AAE8r239HRwAAAEiBBgDSM7tB0kB0DACQdLdW7rssOgQAAEAKNACQnJW618r04+gcACDpc6bOcnQIAACAFGgAIIjNj04AoOGt0YamJdEhAAAAUqEBgBh9XddLYu0WgDiuz9nqBU9ExwAAAEiFBgBCmOQyuzQ6B4CG9bAmDl4WHQIAACAlGgCI89JHr5H0q+gYABqRX2A3LVkXnQIAACAlGgAIY729QzKbF50DQMO5V2snLIoOAQAAkBoNAMTq6/qqpJXRMQA0lHPtzvkbo0MAAACkRgMAoUxyuZ8TnQNAw1itA9d8MToEAABABBoACGf9Pd+V6WfROQA0APMzrbd3KDoGAABABBoAyIdy+azoCADqnS9XX893olMAAABEoQGAXLD+xT+X7IboHADqmZ1ukkenAAAAiEIDAPnhQ58UN+cAqsKvs1L3T6NTAAAARKIBgNyw/sUlyb8enQNA3XFZgWNGAACg4dEAQL4U9ElJg9ExANSVr1jfItaNAgCAhkcDALliy3t+IxkrugBUyoB86NzoEAAAAHlAAwD5Ux7slLQxOgaAemA91n/VndEpAAAA8oAGAHLHVl51r+Td0TkA1Lz1GrQLo0MAAADkBQ0A5FN58DxJ66JjAKhhpsvtlkX3R8cAAADICxoAyCVbefXDMs2PzgGgZq3RuKFLo0MAAADkCQ0A5Nfgpn+X9Gh0DAA1yHWR3XwVvz8AAACegQYAcstWXfOY5JdE5wBQcx6Q6croEAAAAHlDAwD5Nn6Xz0riDC+AkXPvtFL3U9ExAAAA8oYGAHLNbr58vUwXR+cAUDN+o0n7Xx0dAgAAII9oACD/XF2S7o6OAaAmnGVLOwejQwAAAOQRDQDknpW6ByTNi84BIO+spFL316JTAAAA5BUNANSGA9d8UdLt0TEA5JjpDJM8OgYAAEBe0QBATbDe3iG5nR2dA0BOuW60vq4fRscAAADIMxoAqBnW3/UNScuicwDIHZfKp0eHAAAAyDsaAKg150QHAJA3/nXrX/zL6BQAAAB5RwMANcVK3T+Q7CfROQDkxpDcaQwCAACMAA0A1B6zM8SgLwDDrrb+xXdEhwAAAKgFNABQc6xv0XKZvhudA0C4DcqaWBEKAAAwQjQAUKOyMyWVo1MAiGRX2IoFv49OAQAAUCtoAKAmWd+i/5X01egcAMKsVaHp4ugQAAAAtYQGAGpXoXyWpE3RMQBEsEts+ZV/jk4BAABQS2gAoGbZ8sX3yHV1dA4AyT2sCQOfiw4BAABQa2gAoLb54DxJT0XHAJCQaZ7dtGRddAwAAIBaQwMANc1WLnlAsgXROQAk8zs91twTHQIAAKAW0QBA7RseBPZ4dAwACbifZXfO3xgdAwAAoBbRAEDNs+VX/lmuy6JzAKi629S//1eiQwAAANQqGgCoDxubLpX0UHQMAFV1hqmzHB0CAACgVtEAQF2w1QuekOzT0TkAVM0vrNT9vegQAAAAtYwGAOrHrhsXSPp9dAwAVZD5WdERAAAAah0NANQNW3rNBrmdH50DQIWZvmMrem6MjgEAAFDraACgvhz06FWSfhUdA0DFlGV+TnQIAACAekADAHXFenuHZDYvOgeACnF9yVb0rIqOAQAAUA8sOgBQaS6Ziu0lSVOjswDYIQOSXmGl7ruigwBAJfiUmeM1YfILJe0lyyZJQ5OkbGeVtesoL7VWmTbIyk9KWisvrJfZU2ra9Jg2FTZYqfupKsQHUAeaogMAlWaSu/s5MvtOdBYAO8IXWamHh38ANcVnzizonj1fobJPkZUPltkr5TpQ0r6S9vnrF5Y1/Fmcj+0jOZfkf/nG8vBfbyoM/6Ni+0ZJj0h6WKY/SnpEZT0s84dl+pPKekgF3aOnxt07vEkJQKPgDQDULW9tv1Gu10fnADAmT6ip/DJbtvhP0UEqyYvte0k2R+YvrnKp+7SxsMBuW7imynWS86mzDlBWmCPTHtUrYo9L/m0rdf9izJdomfUyZYXL5DpC0vgKpoP0uOTXa1PTmXn5GfeW2UVZdqzkr5PsNZJ2i840Co9Idq/cfyfzeyW7V2Z3KmtaZsuv/HMlCnjL7DfKsgWSXiapUIlrjsBvZLpKu+x3mS3tHExUsyK82H6I5OdIdqyq/7P0qFwLrb+bbTsNggYA6pa3zH6dLPtZdA4AY2HzrNR1bnSKSvIjT52oTU/eJumgRCVXadf9ptXaje+2+PTZ+2gwu0XP/BS1eoZk9i7r6/r2aL/Ri+27SbpV0v+pfCz8lS9Vaf+jTZ3lkOpTOw5TVn6fZDMlHRiRocpc8q9qYEOb3Xrtk2O+yMtOadZuGx+UNLmC2UaT4Gs68LH3Wm/vUEz90fGWtvfI7IuSxiUu/X+t1P2txDURgCMA2CKffsokDW16k7zcKmVTJN9dsonRuUbPBzW6n/NByX8qZT+W63YVyuurlQxVNJRNkpWnSvaPkg6JjoNR+7Pkl0WHqLiNT/29LNnDvyQdrifuP1bS9QlrVtegHa80D/+SVFDZPyBp1A0Amb9Dbjz8V53N0LT7i1qhFakqumRqaXurzD4i+Rvq/LM0k+x9GrfTbyWNvSE7cXAnadQzDirI3q17Js+T9Mm4DCPjh3e8XOZfUPqHf0n2wvQ1EYEGAJ7Fi+2vlfxjGtz4FknNT59NG/6ngcmqziV9QUNZp61a9LvoMKiIb0g621s7jpX7ZyW9MjoQRuwiK3WvjQ5ReeUxHvTdAZ69WfXUAHB7c9J/hWZj25ZUtgPr+7kwR4Y0RUrTAPCpHUcr889JmpKiXm64v3pHvt1uW7jGW9uvlev9lYo0aq7TvWX2d6x/8S/DMoxEQfMlNQdU/pM2Zf8ZUBcBWAMIScNnFb3Y9gNJP9/8qWnEL58oT8j8n6zUfQIP//XH+rp+qF03FSX/SnQWjMjvteumK6NDVEVz+UZJiV9B9WPS1qsen3HCBJlek7jq0jF9W8bjfzpZ1f9d+/TZL/Jix38q8x+p0R7+Jclsx1/dHzf0MUmRM10yWdbjxfaAT9ZHxls6/p/kbw4pbnZqXuZpoPpoAEDe2nairHDr5kEjjWaDyvZW6+v57+ggqB5bes0GHfjY8ZJ9MzoLtsO805ZesyE6RjXYzVc9KlmyV5U3m+LTZ78occ3qWDf+9ZLSHkXL/PtJ6yF3vLXt74fnTvh7orPUMrv5qkdldmpwjIMl/1hwhi3y15y4q8wvjaluN1hfFx+SNBAaAA3Oi20Xy+0qpb6pygvXx2xlF4MCG4D19g5paOOJkv4QnQVb9Su99LH/iA5RXeX0r+MPFd6YvGZVJG9SP6IV+5cS10ROuGRe7DhNbt+VqrhxooFYX9dXZApe0WzneutJfxubYQs2NJ0vaf+Ayk8py+YG1EUgGgANzFvbOyU7LTpHoH71dy+IDoF0bNU1j8l9XnQObIXbJ2tlSvOYlbPr0hf1Onm7K/H/DtP3o6bLI5ZLptb2RZJfLO6VK8v1AUnrAhM0ywcXpR/IsnXeMvtQSUEP4X6urVh4d0xtROGXWoPylrb3yHdgoms9cPuM1flkQ2yB2ZcUe/OBLfLl6u+q/yMaK/ftV+pzsK5j83SzOxY+ffY+kg5NWrRsNySth1xwyVTsuEKu9ugs9chK3fdJfnZwihkqtv9rbIZhrs5MVuhSzGD2WyX7XEBdBKMB0IB8+uwXyWxRdI5gG9S8E+f+G5CVup+S/OfROfAc7mc0QkNu8yfKqc+V76Ni+8GJa1bWgB2jtE2MsgbtBwnrIS9a2s+TnFeiq6m0/3yZbg5OcakfOmfv4AxS8f45kr8qoHJZXu6wUvdAQG0EowHQiAbtAkk7PtG1lplW2s2Xr4+OgSjZ7dEJ8Ez+Q+tf/JPoFMm4Bazlq/Ehr5Y4v6tkty56KGlNhPPWjmNlOiM6R70zdZbl6pAU+fC5p5rKlwTW3/xmk50fUtz0+dyvRETV0ABoMD6145WSHRedI5wzCK6x+ePRCfA0l3tj3XAPZD+QNJi0ptX8HICjk1az5G9pIJhPff8L5P4f4t44CSt13ybTv8eG0PHe2hH3u3GwcKliPpC7T82D5wTURU7wS67RFLxNUiE6RjhPvYsb+WKTohPgaV+z/sUNNWl9867ltJ+8uF7vLzulOWnNChluXCvtKkPW/zWerGmBpH2jYzSUx5rnSbojNIN7tx96/M7Jy05rO0ryf05dV5JkfordtIRZSA2MBkADcXVmcsX8ssmbTC+IjoBA7lOiI0CSNKiCnxUdIoQr9TGAnbTbxlcnrlkZWTn1J3RrtPP+yxPXRCCf2tEq2buiczQau3P+RmV+kmLnv7xE4yYm/e+QT5k5XmVbqJjhrL3W18MMrAZHA6CRtPzhYEnxA0/ywHWYq5Of/wbkxfadZDoqOgckmZbY8p7fRMcIkWXMARix1Lnth7a0M+0RDcQq+MWq8U0ZtcpW9Nwo+ZLgGB/z1jlTk1WbMPk0Sa9IVu+vHtdgdmpAXeQMD0ANpRAxZTSv9lLrH4+MDoEQ/yZpp+gQ0HoNZPOiQ4TpW7RK0v1Ja9bgHACfMnO8lLhh55z/byTeOmeGPPGMCTyHfVSpfx8+W5PK5S6fObPqR2S92H6QFDRo0vQJu2VR5L9n5AQNgEZiekl0hHwpnxKdAGn5jBMmSDo9OgckueY38o2ISS5X2j3zrhYvtu+VtOaO2mn3IyXtkrCiywfS/v+CYOU50QkanZW610qK/WTaNE1375Fi/ePnJE1MUOe5lqlvv56AusghGgCNxH2f6Ai54prprXNqezc2Rmdd81xJ/yc6BvSYmoc+HR0iXJZ8HWAm6Q2Ja+6YoeTHFm6xlUseSFwTQbzYvptc74jOAclK3b2Sfzs2hV/g0+a+uGpXb2l7j6S3Vuv627BJmc8ydZYDaiOHaACgkWUqly+IDoE0/DUn7ir5adE5IEn+Gbv5qkejU4QrjP+Bku/BrrE5AOmPLfD6fyMxvVcxn8ZiS8pDcyWtDUywq8oDi6pxYX/NibvK7LJqXHsEPm0relYH1UYO0QBoJJnWR0fIHdM7fFpbbU7GxuhsKHxCDMHMgwc1sOHz0SHywJbNf1yu/0lb1d+Utt7Y+eEn7C5ZMWlR1v81Fvf3RkeoCeZPJimzcskDMgVvhrF/8Na2ym+E2DDuPEn7V/y62/db7brpwoC6yDEaAI2krHujI+RS2XgVuc75oXP2luxD0TkgSTbPbr02yc1kTbDkxwAO8JZZL0tcc2yaxh0tqepDuZ5hncpWmYaM+0MVuQ5GoDymIxvDM2GM4cgj4XZTslp9+y2QPF29LXG7YrgBWaHLtcw+VPKTK3W90ZRW2U6ypddsCKiNHKMB0Egy4/WfLXutt3b8Q3QIVFFT+WxJu0bHgO6U/KroEPni1yUvaU3HJK85FuXk6/9+ZKXuCh3JsBsk3rpL4D6Z/XxM37m2+QhJEyobpy6tVtP4i1MVGz6nbrMlbUxVcwteqML4inxq7urMlGWLJDVV4nqjLH61rez6cfK6yL30P4yIUxj/Cw1u3CRpfHSU3HG/2NX5fQak1B8/YvZLNaT26ByQZH629fUkPvOeb1bqvs2L7fcp5XDK4XP1VTnnWlGmtA2ACq7/s1L3Xd7adrzcuiXtUanr4lnukGXHWd+ip8b03QV/nbzCicbmfkm/0fDZ96dkeiI4zzC3QUm3afxO/2E3X560mWWl7l95sf0zks5OWfc5Orx1zpesb9GOvY1QfKBDroi104/IxNwjbJFFB0BaXmz7Qc0NgUrnOCt1fzk6BCrLix1flPy46BzQKpX2K9Jkez5vbe+SJ21SPaYD1+xlvb1DCWuOyuZd2XcmLVoeeomtvKqiR+X8yFMnatOTr1Dm6ZoAZdtF0jeT1ZMkt79XoTyYrN5Adq9e/ujdO/Iz7K3t18v1lkrGGnlxrVBmXXL/tpW6HwnJkHP+slOatdvGfkmvDIzxK61tPtzunD+mtxF8+ux9NJjdIWlyhXONBPe02CreAGg0lnXLk09VrhXn+5SZX7PVvZuig6AyNp+7e190DkhyO4OH/61wXS8lbQDsrrsnt0palrDmKNmxSvvx7OpKP/xL0uZPTvsrfd1t8cNP2F2FxC/6mf/YViR+u2fVDn6/6xUVyTE6gzJdoNJ+8/h9uG125/yN3jJ7liy7SXFHlv9Ou236uKTzx/Tdg4VLJQ94+LcbrNTFwz+2ihkAjealj35T0l3RMXLqpZqw++zoEKggs4vE77l4rhutv4vp6luzoelHSn7eNedvgrH+D1XkxfZxkl6UvLDpE9bX3cnD/8hY/+JfytUTm8LP8pbZo24W+bS2oyT/52ok2o6nggYOooZwY9xgrLd3SGbzonPkl507vC8etc5bZr9OMoY75kHBz4yOkGe2esETMv0ibdH8vgnmM2cW5JqRtCjr/xrLkL1EaTdMSPKb1Nf92bQ168C45k9oeE5ClGYpW+ijODbtU2aOV9kWKuKotavTSt180IdtogHQiPr2/aKkW6Jj5NTeWt90SnQIVEKWbGoxtulbtqIn8a77GjR8DCBlvSN9+imTktYcqbt2m6a0g/Oe1JoJY5skj9qUlQ9MX9QWWOJzLfXAls1/XO5zYkPoKLV0nDDir58w+TQp5IjJrTLRZMJ20QBoQKbOsszOjc6RW6ZP+BEn7xkdA2PnxfZ/kunV0TmgIWV+VnSImlC2tA0AaZwGN74ucc2RsSz1+r+fjnXIF2pWuq0bwzZq/M5pBzPWEevv+a5ksf/+zC/xQ+fsvb0v86mzDpB0eoJEz1VW2eZUbpUp6hkNgAZlfV3flotP5bZsNw0OfCI6BMbGZ84saKwDe1Bhdq2t6FkdnaIW2Mqu2yXdnbhqTo8BJM7lvP7fcCxLfdTv9tSr9OqPnyzpscAAe2icX7bdr8oKV0raqfpxnsvm28qum9PXRS2iAdDQyhEdytpg+qBPm/vi6BgYg7v2+FdJU6JjQJtUGGLeyOjckLZc/uYADM9g8VclLWoMAGxAaR/QTDRCd5CVuh+U7IzYFH6ct7S9bav/tNg+U9JbEwb6i99rwsDZAXVRo2gANDDrX/xzyRLfcNaMCfJBXl2uMT5l5niZ8x/BPHBdacsX3xMdo6Z48mMAr/Tps9NPQt+W9YWjJI1LWPG3DMxqSKk/oX0wcb36VNq3W7LYeR1mV/ihx+/83L+9eYD05QGJJLNT7KYl60JqoybRAGh0ZZ0miXU0W+KaNZbVLwg0YY8PSHppdAzoCQ0yhHHUBp/6iaQNaWtmRyettz2W/FhC6qYL8iFtA6CsJ5PWq1OmzrIK5dlK/Xvy2Q5Q08Rznvd3N4w7T9L+6eP416yv69vp66KW0QBocLay6xbJvhadI6cKskJndAiMzOZXh0+LzgFJrkvs1kUPRceoNXbrtU9K+lniqnk7BpA2j3H+vyGZT0xcjwZAhdjynt9IflFsCH3Ei+0tf/lLL7YfsnlGQWqPa7Dw4YC6qHE0ACAN6SxJg9Ex8slnerF9enQKjMCGpo9L2u6EXlTdIxrXHPMaZD1IvQ5Qfsxo9ltXkx82Z3+lXZ21QW43JqyHvHAvJK1nNpS0Xr3b8NjFUuhchSaZunzmzIKrM5OpS1JTQI7T7ZZF9wfURY2jAQDZqq7fSnZ1dI6cMkkMMss5n/r+F0iiC54Lfr4tm/94dIqa1eTXJa64j1pmH5K45pYV/E1pC9qNVup+Km1NADvKVvdukjRLUlxjxdWquyafouKD7XIdGZBgmUr7dQXURR2gAYBh5YFOSdwIbdmbfGpHvs7J4tls3DmSUq91wvPdq7UTFkWHqGXDr7fqzrRFs3wcA7Ay6/8AjIiVupfJFPvfG9N5kl8YUHmTMp9l6mSGF8aEBgAkSbZyyQOSFkbnyC3zi/LymiyezQ+f8xKZ2qJzQJJ0rt05f2N0iNrniY8BxM8BGP79am9IWpT1f0Btax48Q9LvAxPsImly+rL+GVvRw2pJjBkNAPzVpsIFktZEx8gl0zS1dPzf6BjYgoKfL6k5Oga0Wgeu+WJ0iLpgyecAvM5fdkrsn6FpbYdJemHCir+zUvevEtYDUGF205J1MpsTnSOx32rXgQuiQ6C20QDA0+y2hWsUtcO0Fphf6DM6I4a8YCs2T959X3QOSDI/03p7GXRVCeN2Waq0R7J20m4bX52w3vMNsf4PwOhZX9d1knqjcyTiynyuLb0mcg0i6gANADzbhqbLJf0pOkZO/a2euP9fo0Pgmfxi8XssB3y5+nq+E52iXtjNl6+XfGniqrHHAMxZ/wdgbLKmD6oR3mA1XWMren4UHQO1jxtnPIutXvCEpIiBJrXBbZ4feWra/cHYIm+Z/TrJ/iE6ByTJTjfJo1PUFbO0n1CnfgB/Bp9xwgTJXpuw5CY1D/00YT0AVWQrFvxR0ieic1TZnzU0cFp0CNQHGgB4vg1rFkm6OzpGTu2vTU+dFB0CkpRdHJ0AkuTXWambh6lKy8rfS1rP1eLF9r2S1vyLJ5pfJylhY9V+YTctWZeuHoCqK3VfJdOPo2NUjduHbeXVD0fHQH2gAYDn2bxfdV50jvzyM3z6KZOiUzQyb+34R5lizyxDklxWOCs6RD2y5YvvkfTrhCUzSWmn8D8t8dsHrP8D6o5JrkE7SdL66CxV8FP1d30pOgTqBw0AbNnwNG9WjGzZXhrc9IGZfk8AACAASURBVNHoEI3KZ84syJ0JuPnwFetbtDI6RN1Kvg0gaA6AK/H5f9b/AfXIVnX9Vq7zo3NU2HpJbRyzQyXRAMAWWW/vkNzPjs6RX/4Rnz57n+gUDemu3Y+XNCU6BjQgHzo3OkRd8+TrAN+Utp60+djBoQlL/kGl7v9NWA9ASpP2+4ykOmpM26es1H1XdArUFxoA2Crr7/mmTDdH58ipXTSYnRkdotH4lJnjZUZjKhesx/qvujM6RV1b23yjpCcSVjzAW2a9LGE9SXqT0t6LfJ9P0oD6ZUs7B5V5h6R6WEt7m+SXRYdA/aEBgG0bstOjI+TYHJ920oHRIRrKxMknS+Lfebz1GjS2hVSZ3Tl/o0xpByxaIfExgMTHDlj/B9Q9W9GzQrIronPsoLLK1mGl7oHoIKg/TdEBkG+2sutnXmz7YfiO6Hwar6GhTkn/Gh2kEfiUubvIB2lI5YHpcrtl0f3RMRrC8DGAt6craMdKWpiunh+drpYGNThQv1PCkV/uL/KW2cXoGCOWNW2Ul39d2w+ffqakd0h6aXSSMbrCVnbxFi6qggYAts/9DJkdI8mio+SO6Tif1naZrehZFR2l7k0Y+rikvaNjQGu0sXBJdIiGkTV9V+XBBekK+ht8RmeTLe0crHqlltmvkPTiatf5K7vZVl3zWLp6wF/YR2T2kegUI+ZlSXrUW9vara/n69FxxsJK3U95a9vJcrsuOssYPCjpnOgQqF8cAcB2Wf/ikuQ1+R+ABDK5sTKxynzq+18g+anROSDJdZHdtnBNdIxGYSsW/F7S7QlL7q7H/9CapJJlrP8D8msPuX1pc6OuJllfz/VyfTU6xxjMtVL32ugQqF80ADAyBX1SUtU/EapJrrf7tLajomPUtazpbEm7RseAHpDpyugQjSfxJ1jJHsxTn/9n/R8wSs3KsndGh9ghplMkPRwdY8RM37BS97eiY6C+0QDAiNjynt9I/h/ROXKrbPW2dzY3/PA5L5GsPToHJLl3Wqn7qegYDceHEq8DrP6DuRfbx0n++mrXeYY/qtRdR6vBgETKKY/pVJ6Vuh+R+yeic4zQ4yqUPxQdAvWPBgBGbrBwrqT10TFy6rVebH9rdIi61FQ+T1JzdAzoN5q0/9XRIRqSZT+XlPB1UD/Sp58yqaolynakpOrWeLYbWP8HNCbr77lG8h9G59g+P8OWLf5DdArUPxoAGLHhqd+ecDp0zbnI1cmfqQryYvshcv1zdA5Iks5KMRgOzzc8idt+krBkkwY2VPfT+ayc+PV/uyFpPQD5MlRol/RkdIyt8+Uq7b8oOgUaAw8rGCW7SNLj0Sly6hC13P++6BB15iLxeyoHrKRS99eiUzQ0L6c9BmDZMVUukLIBMKSs6QcJ6wHIGVu16HeSnRedYysGlanD1FmODoLGwI01RmX4LJUui86RW2bn+5SZ46Nj1AMvtr9WEscq8sB0Bq9PBxvn1yvp/wdetQd0P/yE3SWl2TQgSbIVtvzKP6erByCXdt33Ukn90TGex/QZ1kkjJRoAGL2NTZdK+lN0jJx6iZont0WHqA9+cXQCSHLdaH1dNXB2sr5tPhd6W8KSr/Tps19UlStnzW+UVKjKtbeE9X8AJNnSzkGV7UTla6vVnRq3M4OkkRQNAIyarV7whFw8nG2N6Rx/zYmsrNsB3tr2DsleE50Dcql8enQI/IWnPQYwmB1dleta6vP/rP8DMMxWdt0i+eejczwt85Ps5ssZsI2kaABgbDauWSDpnugYObW3NjZ9MDpErXJ1ZnKbF50DkuRft/7Fv4xOgc0y1ck6wKTn/x/VgWv6EtYDkHcbxuVkq5V/wVb0/Cg6BRoPDQCMia3u3STP7TCVeK6P+xEn7xkdoyYVHzhe0mHRMaAhuZ8THQLPsPP+N0l6LF1BP8Ylq+gVD5/zEkkHVfKa2/F96+0dSlgPQN5NHPp/kiZGx5DZ3tER0JhoAGDsDnr0C5Juj46RU7upPHBadIhas3mAIg+d+XC19S++IzoE/mp4DaOn/LRoH7XMPqSiV2wqv7mi19se1v8BeAY/5KTJcr8oOockyfUWb217b3QMNB4aABgz6+0dktvZ0Tlyy3WKT5v74ugYNaV58lxJB0bHgDYoa+IYRh5Z4mMAllX2df2yUr7+73JngCWAvxo/dIGkF0THeJrbfC+27xUdA42FBgB2iPV3fUMyzghv2QSVh2iQjJBPmbuLTAycywW7wlYs+H10CmyBjbtOSdcBVu68vs+cWZDpDZW63vZZv5W6H0xXD0CeebG9RVJ7dI7n2IutR0iNBgB2XMaU8K3zE71l9iuiU9SEiYMfk7RPdAxorQpN3IzklK1Y8EdJCfdF++v9yFMrc1b2nj2LkvaoyLVGgvV/ADZzdWaSXamUK0hHzE70qR3V2boCbAENAOwwW9Fzo0w/js6RUwVZ9qnoEHnnU9//ArlOjc4BSbJLbPmVf45OgW1wXZew2kRtXHdkRa7k/qaKXGekWP8H4C+KD5wo+auiY2yFKfOFPuOECdFB0BhoAKAyhux0JX0ttaa824vt06ND5Fo27ixJk6JjQA9rwsDnokNgO7KsNucAmKc8//+4pGUJ6wHIKT/kpMmSLozOsR0v17rxZ0aHQGOgAYCKsJVdfTJ9MzpHTpnkrEzcis1rwTqic0CSaZ7dtGRddAxsx0v//EtJCd/S2PE5AH7o8TvLlbAR6j+wUvdAunpAnTKr/TWa4wcvVJ4G/23daT6tbUp0CNQ/GgCooMKZkgajU+STHcv5rq3IyvMkNUfHgH6nx5p7okNg+4Y3sCjhdHuf6lPfv2M3z+MmzlDKP+eW8fo/UAnmNb0Odnjwn7VF5xih8SrbVcPzCoDq4QcMFWN9C38t07XROXKr4Be7ZNEx8sSL7YfIdFx0DkhyP8vunL8xOgZGKLOUxwAyWdMOTu+v3DaBkZUr/CBpPaA+3a+NhS9FhxirfA/+26rpKj7AW5GoqqboAKgzrk5J/yw+0X0+V6ta296pvp6vR0fJD7tQchqR8W5T//5fiQ6BURjadL2ycWWlauSbHSvpv8Z+gaTn/29ljSVyZr2kDdEhRuEpmX4h1yfstoVrosOMWcv9syTL6+C/bbnYp8/+ji1b/IfoIKhPNABQUVbqvs9b2xfK9eHoLLnkdqHP6Py2Le1s+KMSXmx/reRvi84BSdIZps5ydAiMnK28+mFvaS/JNC1RyTE/wPthc/aXyunWoTrT/5Ezpk9aX/fl0TEaiR9y0mTZ0AXROcZokoayz0l6V3QQ1Cc+eUPluS7Q8ARmPN/f6IkH/y06RC64zo+OAEnSL6zU/b3oEBgDS3oM4AA/vOPlY/rOwtCxSnn8ifV/AGpn8N+Wud7pxfZ/io6B+kQDABVnpe5HZKLTvTXun/IjT50YHSOSt3S8XaajonNAUuZnRUfAGPlQ2nWAhfLY3gKwpOf/n9Ta5v9JWA9AznjL7GINDf7blgV++Am7R4dA/aEBgOpY33SJpIeiY+TU/tr05NzoEFFcnZmMtYi5YPqOrei5MToGxqj/RcuV9Pdsdsxov2Pz4NM3ViHM1ir+iGGWQOMavscoXKHaGvy3NfsqG8/9EiqOBgCqwlYveEKyT0fnyLEzvNi+W3SIEK0P/oukw6JjQGWZnxMdAmM3PLfBUq4DfIPP6Bzd7KCpHYdKemF18mwJ6/+AhtZy/yzJa3Hw35aZ5vq0tldHx0B9oQGA6tl14wJJ90XHyKk9JX00OkRqPmXmeLmfG50DklxfshU9q6JjYAd5OeUxgN31+B9aR/Ud2RiPDYxVlrH+D2hQfuSsPWRWq4P/tiZT2bq82D4uOgjqBw0AVI0tvWaDzOZF58ixj/i0uQk/GcuBCbufJOnA6BjQgEyfig6BCmguXy9pKFk9y0b5QJ/0/P8dtmLh3QnrAciTjYXaHvy3dQfL9fHoEKgfNABQXS999BpJd0THyKmdVR44MzpEKj5l7i6SnRGdA5Lki6zUfVd0Cuw4u/mqRyVbkbDiiB/ofcYJEyS9tophnlOQ6f9Ao/KW2UWZZkfnqBrTOV5s/7voGKgPNABQVdbbOyQzzhlvlc3xYvtB0SmSmDj4MUn7RMeAnlCT19srkg0u5TEAP9KnnzJpRF/65LjXStqpunmegfV/QEOqs8F/W9Ms1yJPuVIVdYsGAKqvr+vrkpZFx8ipcXLV/Zl4L7bvJdep0TkgSXaZLVv8p+gUqKBydl3Cak0a2PD6EX3lUNLX/9dr/M4/T1gPQF60PDi7rgb/bY3pKLV0nBAdA7WPBgCqziSX2dnROXLLdJxPazs8OkZ12VmSRvapIarpETWNvzQ6BCpsZVdJUrqmjo3wwd6UsAHgP7WbL1+frh6APBge/NdAb7WZX+KHztk7OgZqGw0AJGF9XT+U6cfROXIqk9fvsESfOusAyedE54Ak2UW2bP7j0SlQWSa5lPT19+0+2HuxfS8lXffJ+j+gIQ0P/tsrOkZCe2icXxYdArWNBgDSMT9DwzeqeC7X231a21HRMaoiy+ZJao6OAd2v8TstjA6BKnFLuQ7wFT5t7ou3+RXmxyjlPcYQ5/+BRuNTO1plagsoPRBQ8xn8OG9pe3NsBtQyGgBIxlb0rJD07egcuVW286MjVJq3zjlYsuOic0CS+Tm8Il3HBrIfSBpMVm9o4Oht/vNy0vP/99iqrt8mrAcgmKszU+ZXKP2zTFlu75D0UOK6z2bWNbxdCRg9GgBIywqnK+VNam15rRfb3xodorLKF6q+p/LWil9rl/2/EB0C1WO3LVwj6ZfpCm7nAT/l+X/X95LVApAPLQ/OljQ9fWG/2vq7vi/3j6Sv/SwHaOIgW7YwJjQAkJT1Lfy1pC9F58ixi1yddfHn0ovt0+V6W3QOSHI705Z20nird66UxwCO2do6qs27qrd9RKCSWP8HNJTAwX/rpOGh1tbf8yXJvhuQ4a9cp3qxvSU0A2pSXTxooMaUh86VtDE6Rk4dopb73xcdojL8YrGvNp5rhfq7vhkdAwlkWcoGwN6a2nHolv9R0tf/N2pD040J6wGINlC4SCGD/6zTSt0PPv2X5cEPSHoifY6nNUla4jM6mwIzoAbRAEBytvKqeyV1RefILbPzfcrM8dExdoS3tL1NshnROSDJ7Qxj+GZj6Fu0StL9yepl5S0/6JunXP/3M1u9IPIGHDUpKyct59xvV4q3zC7KNTug9J1aO/7KZ/4NW3nVvXJFb3E6TOse/GBwBtQYfiEhRnngfEnromPk1EvUPDliqm1FuDozmZ0XnQOSZDfYyi7WbzYIk1yuGxJWfN6Dvs/obJIr4UYT1v9hLDz1QNSdEterS8P3F9mVinh+Mf+g3Tn/+W+vTtrvckn9yfM8i5/n0046MDYDagkNAISwlVc/LOmz0Tlyy3SOv+bEXaNjjEnr/cdJOjw6BuTyoU9Gh0BimV+XsNrrfMYJE571d9Y98CpJk5IlKHP+H2PyVNpyvnPaenWq9YE2hQz+s+9aX88Wj1jZ0s5Ble1ExQ643kk+dOX2vwwYRgMAcSYM/rui16jk197a2FRzr3T5lJnj5XZudA5IMv2X9S8uRcdAYm4/Urod1RO1tvmI5wR4Y6LaknSfrey6PWE91I/EDYCI8+r1xY+ctYdcEeuSN6lQ/ui2vsBWdt0i1/xUgbbI9RZvbXtvaAbUDBoACGM3LVkn+b9H58gt18f9iJP3jI4xKhMmz5F0UHQMaEiuzugQSM9K3WslvylZwaw85y/bAHz6KZMke3+y2kz/x5glPgJg9sqk9erRpqaLFdFIcX3Wlvf8ZrtfZzpL0j3VD7QNbp/1Q06aHJoBNYEGAGLtOnCFpN9Hx8ip3VQeOC06xEj5lLm7SDozOgckuRZbqftX0TEQxCzhNgB7n4rtq7zY/k0NbrxD0kuSlS47DQCMUZZ2cKTrYJ85s5C0Zh3xltlFyWcFlP6TTBeO5Aut1P2UzE+udqDt2Efjhz4TnAE1gAYAQtnSazbInYFxW+M6xafNTbdPe0c0D35U0j7RMaANGleOeE0SeeFKuQ5Qkg6V9E+S9ktYc0BmP0lYD/XEE27LGLar7tr9mMQ160Lo4D/ptOG3qkbG+nqul+k/qxloBGZ5y+yUR7FQg2gAIN5Bjy2RdEd0jJyaoPLQ2dEhtseL7XvJ9JHoHJAk/5wtW/yH6BSIY6Xu2yTdF52juvym0dyYA89SKN+dvqjV7HafUHGD/0oq7XftqL+tUP6QpDWVzzNiJssWPm9AK/AMNAAQznp7h+TeGZ0jv/xEb5n9iugU22T6pFJO/sbWPKbxZV7/QwOcj2f9H3ZA0y53S/KkNU3v8mL7zKQ1a1zg4D+X/GRTZ3m032jLFv9J7tHHN/9G68ZzJBNbRQMA+dDf0yv58ugYOVWQZZ+KDrE1PnXWAXKdFJ0DkuSfsZuvejQ6BXIg/TGAtFj/hx1gN1++XtKfAkp3eUvHWwLq1qaowX/SF6zUvWzM393fs1gKP6J0mk9rmxKcATlFAwC5YJLLdU50jhx7txfbA16BG4Gs8ClJzdExoAc1sOHz0SGQEwPrfyhpY3SMKnlQK7tujQ6BWme/DSg6Webf85b2q4YH22FrAgf/rVN5cIc+PTfJVSifJGlDhTKNxXiV7SpXJ896eJ6m6ADAX1h/zw1e7PhJ4j3StcIkP0/Sm6KDPJO3zjlYXv6X6ByQJJtnt177ZHQK5IPdeu2T3tr+C7mOjs5Sca7rLfXr26hD5f+R7HUBhTOZTpSyE73Y/gfJVkn+a8kfl7In5Eq7oWBrzMvy8q/Vv/gXqf+8DQ/+eyBm8J/pfFu55IEdvszynt94S/vFstCVvNNVfKBDJS0MzIAcogGAfDE7Q+6/1Oa90ngmO9andhxtK7t+HJ3kaeXyBTKx2ijePdrw6JLoEMiZ4WMA9dcAqPv5BkjDfi4p+qz2iyR/kaS3Dd/2eL7ufiyTiu0/9YH1b0/aYC4+2K6QwX+6S481f65iV9u45iJNmPweSa+s2DVH72I/bM5/2y2LUm++QI7xWghyxfoWLZf8v6Nz5FbBL87L7YEX26fL9PboHJBkfqat7t0UHQM5U7Z6nAMwpPFD+WmConYNbbpJ0qiHvDWgN2j8xHNTFfMjZ+2x+Y3H9Nw/bHfOr9jRKVvdu0lenqXYn7NJKpQr19RAXaABgPzJ9ElJQ9ExcsnVqta2d0bHGOYXKyfNiAZ3q/r2/6/oEMgfW9l1u6SAdWfV5L9k0CUqwVZd85gkZkmMhOvvk9XaVPi0Igb/uX5k/T3frfRlrX/xL2VaXOnrji6E3uXF9n8KzYBcoQGA3LEVPavl+nJ0jtxyu9BndIYe3/Fi+1slmxGZAZu5nTaWVUVoGDdEB6gs1v+hgkxfi45QI/ZMUcSndrRKOjFFrecYVME/XLWruz4hKfoV/AVebN8tOANyggYA8qmcnaP6nWC9o/5GTzz4b1HFN0+UjdjLi+exn1t/Fw9E2Dqvs2MArP9DJbmuFccAcsHVmSkrxwz+k3/eVvSsrtbVrdS9Vu4fqdb1R2jfsKMVyB0aAMglW7Xod3L1ROfILfdP+ZGnTgyp3fLgP0s6PKQ2ni0rnx4dATln/mPFrqKqpIe0ct/+6BCoH1bqvk/SjdE5oM2D/+yIgMoPaWig6g/G1t/zX3IFz7iyk31a26tjMyAPaAAgv3xgnqR10TFyan9tenJu6qJebB8n887UdbFF37IVPf8THQL5ZqXup6R6eQvAv8FxF1Sc+1XRERpd6OA/szM3z4NIUEunKPa+NlPZurzYPi4wA3KABgByy1Ze/bBcn4/OkWOf9ENOmpy2pM2RdFDamtiCIWV+VnQI1AgvXxsdoSKs8MXoCKhDBz32VUl3RMdoaFGD/6SV6tv36lTFrNR9n1znpKq3FQfL9fHgDAhGAwD5Zvp3SX+OjpFTkzV+6NRUxXzK3F0kPzNVPWyLXVvN84qoMxsf+56kB6Jj7KBb1LeIN15QcdbbOyTnzbYogYP/XF7+UPK3ivr3+7xMNyet+Vymc7zY/nehGRCKBgBybXhwij4dnSPHPuLT5r4wSaUJAx+RlKYWtmWTCkPzokOgdgzvotaV0Tl2iNslJnl0DNSp/p5eScyXSCx28J992foX/zx5VXWWVS7PkTSQuvYzNMu1yFnl3LBoACD/Jm2aL+kP0TFyameVB6r+qbwX2/eS7KPVroMRcF1pyxffEx0DNWagsFDSo9Exxug2HfToV6JDoH6Z5LLs31Q/AzNrQ/GBjqDBf09FvtFo/YtvlevyqPrDIXSUWtrCNkohFg0A5J4tvWaDjLVzW2dzvNhe3XP5rjMlTapqDYzEExrMLo4Ogdpjty1cI9kF0TnGxOyj1ts7FB0D9c36Fv2vJGarJOJHnLynpJi32VwXbN4AEad5505Jd4VmMLvUD52zd2gGhKABgNrw0jWLJf0qOkZOjZPr3Gpd3KfOOkCm5BsHsAWuS+zWRQ9Fx0CN2vDoFZL+NzrG6Ng11tf1w+gUaBCl7stk+n50jIYwtClq8N/dmrTpsoC6z2I3X75eUptijzbtofHlSwPrIwgNANQE6+0dkvmnonPkluk4n9Z2eFWunTV1SmquyrUxGo9oXHPsK4Ooaba6d5MyP1HSYHSWEbpbQxuTDToFTHJtWv9uSb+IzlLPhgf/2fuDyn/Ull6Ti6MeVur+qUxfCg3h+hdvaXtbaAYkRwMAtaOv5z/FkJ6tyeRW8VfphqfE+r9U+roYCz/fls1/PDoFaput6Fkh6fToHCOwXtLMZPu5gc3s1muflPQ2cb9RFcGD/35ipe5vpa+7Ddm4D0t6ODSD2RXDm57QKGgAoGYMD+lh9/lWud7u09qOqvBFL5bUVNlrYgzu1doJi6JDoE6Uui+T69roGNswILN3W6mbBzCEsFL3WpUH3iLXjdFZ6k7x/jlBg/8GJf9wQN1tsuVX/lnunwiOcYAmDp4TnAEJ0QBATbG+nutl+ll0jtwq2/mVWuvi09peLdk/VuJa2GHn2p3zN0aHQH0YbqZqlkzfic6yBQOSjrO+ruuig6Cx2cqrH9ak/Y6RnFXEFTI8+K/ybyuO0AIrdd8WVHubrL/nGrl+FBrCdaoX21tCMyAZGgCoPeZnREfIsdeqteP4Hb2IF9vHqWwLKhEIO2y1DlzzxegQqC9W6h7Q+jXvliz2/OmzPSH3t1upuzc6CCBJtrRz0Eo9p0t6j6QHo/PUvOHBf3sGVH5UhXFRjYcRGjpJw0efojRJWuIzOnnrswHQAEDNsRU9/5PTT67ywf0Kb51z8I5dQ5dJOqwygbBDzM9kBRqqwVb3blKp63hJ50iK/hn7tSw70vp7bgjOATyPlbp71dT8dzJ9VrUzRLOSntrRC3jL7FfFDf6zT9ryK/8cU3tkrP+qOyU/LzjGYXr8gQ8EZ0ACNABQm8rlsySVo2Pk1K7y8vU+teOVo/1Gl8xb2y+Qif8A5IHpZuvr+e/oGKhfJrmVus+TZccoZie1S75ITc1HbN7Djh216pq1klIOT/yjlboHEtYLYcvmP2593adqyF4p+SLFflqbmFfgz2b2IcUM/vulDny0J33dsbBLJMUeUzCd4erk+bDO8X8wapL1L75Vpi9H58ixFynzm72l4/0jnQng0+a+UK3t35brzGqHwwhx3AWJWN+ipRq/8yEyfUrSukRll0l6vZV6TmLDReXY8F7xryUs+NVktXLAVnX91ko9J2kge4lkZ0u6PTpTlT0oK+z4AOZM+1Ugy2itkWUn1MpbdJsbaW2SNgXG2EtH/n73wPpIoCLDwoAIPu2kA1UeukPS+OgsObdSZp9VYfy3tnST7S2zD5WyE2Rql7RzQD5siet66+/+h+gYaDx+xMl7anDgAzK1Sdq/8gV0ozK/TH0939n8sIoK8+mnTNLQxqvlemeVS31ZUpuVunf4FfFa5sX2QyR/j5QdI3mrand7zoCk30u6V/K75fqFygPfqsQ6Tm/t+Ee590oat8MpR+ZOWXac9S1anqhexfjUjtcr80WSXpG4dFnyC63Uc3biukiMBgBqmre2XyHXydE5asSQhj+puE/y9ZL2kmyKpBfExsIWlJV50Vb0rIoOgsblMzqb9Pj9Ryuzd8r1Bkkv09jvG34l0zdk/mVb0bO6gjGxDT5t7gtVHnyFMi9U9sKFQW3S7Xbroocqet064FPm7qIJg6+W/FVSNkXyKZL+RukefLdmnaQ/yvWwpEeU6Y8q617J75XZvWoq/07LXvSAqbNqxyt96qwD1JS9vFrXf9qQr5Flt9b60RQ/vOPlKvg+ynxC9YsVBjWg39oti+6vei2EowGAmuaHztlb48p3Sto1OgtQQV+2Uvdx0SGAZ/LDT9hd/7+9+43Vu6zvOP657nMsU5jKliyR7k+yuZgYfaDVLMuShcTEZGbhycZiXPZki7gne7AnSrHAGfJHq1sVlPb8KXYShrPsH0KU/ROiWKHnPi1g51CEzT+ggm1FpKXtua89aFmUUNrT3vd9nXP/Xq+kSf9e1zttn1zf8/tdd2/6zen13pJaXpvUV6fm/PTy6tS8OsdfKzySlCeT+r2kPpyUBzM4dm/Zc9Pjrfuhlbrhkpdlubc+U4NfTim/kprXJIPzk7zq+Lfy8tScl9MdEpQcOPGdg8cH+vXQ/3+/9g6l1AMp9ZnU8v1MD36QH778SR8lCzzPAIA1r254z7WJd6WZGEdTl19//EZgAAAYHpcAsvYtP7c5yf7WGTAcZd7hHwCAUTAAYM07fjlN2dy6A4bgUI6Va1tHAAAwmQwAmAzrXnF9ku+0zoCzUrLFBTwAAIyKAQAToezacigp17TugLNwIM9NfaR1BAAAk8sAgAlStyfx7jRrU8115aGtB1pnAAAwuQwAmBgnPu/1ytYdcAYeT8knWkcAADDZDACYLP25W5PsaZ0BK1LrTOnPPds6AwCAyWYAwEQpSU1yeesOWIGv55Xr/bwOUAAADBpJREFUP9k6AgCAyVdaB8Ao1A3v/kJSLmzdAafhj0p/bmfrCAAAJp8nAJhQxVMAL+2B1gEkSemnP3db6woAALrBAICJVPpzX0pyZ+uO1anen8GxdyTxznlrJRtPvLYCAAAjZwDAJNuYZNA6YtWpdWPZc9PjSb2hdUqn1dxTFmf/rXUGAADdYQDAxCr9uYeSfLp1x+pS7ipLC/+ZJFk++sEk+9v2dFZNBpe2jgAAoFsMAJhsU4NNSY60zlglaury+5//Qdm742BSP9IyqLvqP5Slha+0rgAAoFsMAJho5f6Fx5Jsb92xOpSdZWmh/zM/te68jyb5bpuezlpOrVe0jgAAoHsMAOiCD8SFd8upyzMv/Mmya8uh1FzXoKfLPlmWFr7WOgIAgO4xAGDilf7cE0mub93RVMn2kx46S+aSfHO8QZ11OL3pq1pHAADQTQYAdMPykQ+luxfeHU6Zvvpkv1j6c0dTy8wYezqsfLzsvvHbrSsAAOgmAwA6odMX3pXccMpD59Jr/i7JA+MJ6qwfZWr6g60jAADoLgMAuqObF979KL2XfehUv6lkZpDiYrrRKh8p93/ih60rAADoLgMAOqPs2nIoqde27hirkg+f7qGzLM7fnpovjzqpo57Mzx39WOsIAAC6zQCAjinz6c6Fd0/mnGMrvPxwcOloUjqu5Kpy700/bp0BAEC3GQDQKccvvKtXtu4YizM4dJalhS+m5POjSuqo/8nBc+ZbRwAAgAEA3bO0/tYke1tnjNiZHzoHg/clGQw3p8Nq3VQeueG51hkAAGAAQOeUzAxSy2RfeFfqFWd66CxLCw8m5bZhJ3XUQycGTgAA0JwBAJ1UlmY/m5p7WneMyFezuP6Ws1phOZuSHB1OTqdtLJnxNAUAAKuCAQDdVbKpdcJI1HLZ2R46y97ZbyRlx5CKuupLpT93Z+sIAAB4ngEAnVX6c19KzedadwxXvT9Ls3cMZanB0Zkkzw5lrS7q1ckcMAEAsGYZANBxg0szURfelUtLUoey0p6bHk+ydRhrdU7JZ8vu+Ul9xQQAgDXKAIBOK0sLD6bmM607hqLmc6U/94Whrnlk6pokB4a65uQbpNTJvmQSAIA1yQAABuWKrP0L7+oo7jQoD209kGTLsNedaDW3lN3zk/4xkwAArEEGAHRe2Tv7jdTc1Lrj7NRPl/7c0kiWPjy9Jcn3R7L25Dmakr9qHQEAAC/GAACSnDi0rdUL746lTI/s0Fn23fhMUq8b1fqTpW4r/blvtq4AAIAXYwAASUp/7onUfLx1x5mpC2Vx68Mj3eLwwa1JHh3pHmvfM5mu17SOAACAkzEAgOcNjlyXtXfh3aFxHDrLvp1HUusHRr3P2lb+pty34FUJAABWLQMAOKHs3XEwJX/dumNl6vXlvoXvjGWr3zh4c5L/Gstea89TmV63xv7vAADQNQYA8NOOHPpoku+1zjhNB7NusHlcm5WdO5dTy+Xj2m9tKdeV+254unUFAAC8FAMA+CnlwZt/kpI18h533Vx2bd8/zh3L0uw/JuUr49xzDfhu1r1ia+sIAAA4FQMAeKGa2SSr/Sb3J3L08PVNdu4NLm2y72pV6hVl15ZDrTMAAOBUDADgBUp/7mhKXeWf5V6vLg/e/JMWO5fd8/ek5t9b7L0KPZzz1n+qdQQAAJwOAwB4MYvrb0nyQOuMk3gshw8uNC2oZWOS2rRhNajlsnL3zLHWGQAAcDoMAOBFlMwMUuoVrTtOYlPZt/NIy4CyZ3YxJf/UsqG5mt1Zmu323wEAAGuKAQCcRFmcvz01X27d8QIPpX/Bp1tHHDd1WZLufvW7lo3FUxAAAKwhBgDwklbdhXcbS2YGrSOSpCxufTglN7fuaKPcVfbM/kfrCgAAWAkDAHgJZWnhi0m5q3XHcfXe0p+7s3XFz6iZSfJc64wxq6nL728dAQAAK2UAAKcyyPuStP+qe5na1DrhhUp/7ltJ2da6Y6xKPlOWFvqtMwAAYKUMAOAUyp7ZB5JyW+OKO8ritrvbNpxMvTrJ060rxmT5xFMPAACw5hgAwOlYzqYkRxvtPkhvcHmjvU+p9OeeSspHW3eMRc1C6c/9d+sMAAA4EwYAcBrK3tlvJGVHo91vLbvn97bZ+zQdnvpwkh+0zhixw3nZ4OrWEQAAcKYMAOB0TS9fleTQmHc9ktQrx7znipV9Nz6TZHPrjpGqub7ct/Cd1hkAAHCmDADgNB0//JVrx7ppzYdLf+6bY93zTP38kU8k+XbrjBE5mHOWP9Q6AgAAzoYBAKzE4f2bk+wb025fzznnXjOmvc5auXvH4SRXte4Yjbq57Nq+v3UFAACcDQMAWIGyb+eR9KYuSvLUiLf6cUrvD8quLeN+5eDs/PqBTyb5WuuMIXsiKR9rHQEAAGfLAABWqOze+mhK7+Ikz4xoi2eT/GFZ3PbVEa0/MmXnzuXUOtO6Y8g+UPpzz7aOAACAs2UAAGegLG67O6X3tgz/SYADKb23l/7cvw553fFZmt+ZZKl1xpA8kmShdQQAAAyDAQCcobK47f70pt+Y5M7hLJhdSd5aFrfdO5T1GilJTa2Xte4YilIvL/25o60zAABgGErrAFjralLy5ne/K6VcmeQ3z2CJx1LrVVla/6mSmcGw+1qpG979haRc2LrjLOxN/4INk/RvAgBAtxkAwJDUC2em8+PHfz+pf5yU30ty7kv89meTclfK4JbUcvskfpW5vuk9v51e/XLrjjNW6jvK4vznWmcAAMCwGADACNSLL57Ko+e/PqW8Iam/mFrOTfJs6mB/au+redVr9pW7Z4617hy1+uZL/iUlF7XuWLGae8rS3IWtMwAAYJgMAICRqW/58zekDvYmmWrdsiK9+jtl9/zafXoBAABehEsAgZE5/lGGdUfrjhXa6fAPAMAkMgAARmvd4L1JnmydcZqezrHeX7aOAACAUTAAAEaq7Nq+P7W+t3XHaam5rDyw7butMwAAYBQMAIDRW5r/2yT/3DrjpZW7snTB1tYVAAAwKgYAwMiVpObw9J8kebB1y0k8nOXn3lkyM2gdAgAAo2IAAIxF2XfjMxksX5Tk+61bXmB/pupFZe+Og61DAABglAwAgLEpe7b/b5ILk3yrccrzvpdefVu5f/7rrUMAAGDUSusAoHvqm/70gvSmP5/kjQ0zHktdfntZ2v5IwwYAABgbTwAAY1f23PR41i1fmNTbmgTU3J7B0d9y+AcAoEs8AQA0VTdccnGS2STnj2G7Q0ndmP789SWpY9gPAABWDU8AAE2V/tzODI69ITUfT3JkRNscTclcetOvK/35jzn8AwDQRZ4AAFaNuuGSX01yaZJ3ZjhPBDydlL9Pr/fBsnvro0NYDwAA1iwDAGDVqa/9i3PyysPvSMm7kvK7SX5pBX/8qaR8Mam3Zt25d5RdWw6NqhMAANYSAwBg1atv+rNfy9T0W5P6utScn5JfSM15SflJMtifUvZnUB7JVG+3r/QDAAAAAAAAAAAAAAAAAAAAAAAAAAAAAAAAAAAAAAAAAAAAAAAAAAAAAAAAAAAAAAAAAAAAAAAAAAAAAAAAAAAAAAAAAAAAAAAAAAAAAAAAAAAAAAAAAAAAAAAAAAAAAAAAAAAAAAAAAAAAAAAAAAAAAAAAAAAAAAAAAAAAAAAAAAAAAAAAAAAAAAAAAAAAAAAAAAAAAAAAAAAAAAAAAAAAAAAAAAAAAAAAAAAAAAAAAAAAAAAAAAAAAAAAAAAAAAAAAAAAAAAAAAAAAAAAAAAAAAAAAAAAAAAAAAAAAAAAAAAAAAAAAAAAAAAAAAAAAAAAAAAAAAAAAAAAAAAAAAAAAAAAAAAAAAAAAAAAAAAAAAAAAAAAAAAAAAAAAAAAAAAAAAAAAAAAAAAAAAAAAAAAAAAAAAAAAAAAAAAAAAAAAAAAAAAAAAAAAAAAAAAAAAAAAAAAAAAAAAAAAAAAAAAAAAAAAAAAAAAAAAAAAAAAAAAAAAAAAAAAAAAAAAAAAAAAAAAAAAAAAAAAAAAAAAAAAAAAAAAAAAAAAAAAAAAAAAAAAAAAAAAAAAAAAAAAAAAAAAAAAAAAAAAAAAAAAAAAAAAAAAAAAAAAAAAAAAAAAAAAAAAAAAAAAAAAAAAAAAAAAAAAAAAAAAAAAEP2f7s8tyhKDN2NAAAAAElFTkSuQmCC;" vertex="1" parent="1">
          <mxGeometry x="668.5" y="40" width="154" height="78.96" as="geometry" />
        </mxCell>
        <mxCell id="IrzSOC0ikjODqD1h2LZV-54" style="edgeStyle=orthogonalEdgeStyle;rounded=0;orthogonalLoop=1;jettySize=auto;html=1;" edge="1" parent="1" source="IrzSOC0ikjODqD1h2LZV-52" target="IrzSOC0ikjODqD1h2LZV-44">
          <mxGeometry relative="1" as="geometry" />
        </mxCell>
        <mxCell id="IrzSOC0ikjODqD1h2LZV-62" style="edgeStyle=orthogonalEdgeStyle;rounded=0;orthogonalLoop=1;jettySize=auto;html=1;entryX=1;entryY=0.5;entryDx=0;entryDy=0;" edge="1" parent="1" source="IrzSOC0ikjODqD1h2LZV-52" target="IrzSOC0ikjODqD1h2LZV-56">
          <mxGeometry relative="1" as="geometry">
            <Array as="points">
              <mxPoint x="746" y="375" />
            </Array>
          </mxGeometry>
        </mxCell>
        <mxCell id="IrzSOC0ikjODqD1h2LZV-52" value="" style="rounded=1;whiteSpace=wrap;html=1;" vertex="1" parent="1">
          <mxGeometry x="679.5" y="200" width="132" height="70" as="geometry" />
        </mxCell>
        <mxCell id="IrzSOC0ikjODqD1h2LZV-43" value="" style="verticalLabelPosition=bottom;aspect=fixed;html=1;shape=mxgraph.salesforce.bots;" vertex="1" parent="1">
          <mxGeometry x="700.5" y="210" width="42" height="39.9" as="geometry" />
        </mxCell>
        <mxCell id="IrzSOC0ikjODqD1h2LZV-31" value="&lt;font face=&quot;arial&quot;&gt;&lt;span style=&quot;font-size: 16px;&quot;&gt;&lt;b&gt;CR7&lt;br&gt;HANA&lt;/b&gt;&lt;/span&gt;&lt;/font&gt;" style="text;html=1;align=left;verticalAlign=middle;resizable=0;points=[];autosize=1;strokeColor=none;fillColor=none;fontSize=12;fontColor=#1d2d3e;fontFamily=Helvetica;" vertex="1" parent="1">
          <mxGeometry x="744.5" y="210" width="70" height="50" as="geometry" />
        </mxCell>
        <mxCell id="IrzSOC0ikjODqD1h2LZV-61" style="edgeStyle=orthogonalEdgeStyle;rounded=0;orthogonalLoop=1;jettySize=auto;html=1;entryX=0.5;entryY=1;entryDx=0;entryDy=0;" edge="1" parent="1" source="IrzSOC0ikjODqD1h2LZV-56" target="IrzSOC0ikjODqD1h2LZV-52">
          <mxGeometry relative="1" as="geometry" />
        </mxCell>
        <mxCell id="IrzSOC0ikjODqD1h2LZV-66" style="edgeStyle=orthogonalEdgeStyle;rounded=0;orthogonalLoop=1;jettySize=auto;html=1;" edge="1" parent="1" source="IrzSOC0ikjODqD1h2LZV-56" target="IrzSOC0ikjODqD1h2LZV-64">
          <mxGeometry relative="1" as="geometry" />
        </mxCell>
        <mxCell id="IrzSOC0ikjODqD1h2LZV-56" value="&lt;b style=&quot;color: rgb(29, 45, 62); font-family: arial; font-size: 16px; text-align: left; text-wrap: nowrap;&quot;&gt;ZVBCT0013_CR7&lt;/b&gt;" style="rounded=1;whiteSpace=wrap;html=1;" vertex="1" parent="1">
          <mxGeometry x="320" y="350" width="150" height="50" as="geometry" />
        </mxCell>
        <mxCell id="IrzSOC0ikjODqD1h2LZV-60" value="&lt;font size=&quot;1&quot; face=&quot;arial&quot; style=&quot;&quot;&gt;&lt;b style=&quot;font-size: 16px;&quot;&gt;Job de Coleta CR7&lt;/b&gt;&lt;/font&gt;" style="text;html=1;align=center;verticalAlign=middle;resizable=0;points=[];autosize=1;strokeColor=none;fillColor=none;fontSize=12;fontColor=#1D2D3E;fontFamily=Helvetica;" vertex="1" parent="1">
          <mxGeometry x="540.5" y="380" width="160" height="30" as="geometry" />
        </mxCell>
        <mxCell id="IrzSOC0ikjODqD1h2LZV-63" value="&lt;b style=&quot;text-wrap: nowrap; color: rgb(29, 45, 62); font-family: arial; font-size: 16px; text-align: left;&quot;&gt;ZV13&lt;/b&gt;" style="rounded=1;whiteSpace=wrap;html=1;" vertex="1" parent="1">
          <mxGeometry x="210" y="139.99999999999997" width="80" height="41.04" as="geometry" />
        </mxCell>
        <mxCell id="IrzSOC0ikjODqD1h2LZV-65" style="edgeStyle=orthogonalEdgeStyle;rounded=0;orthogonalLoop=1;jettySize=auto;html=1;" edge="1" parent="1" source="IrzSOC0ikjODqD1h2LZV-64" target="IrzSOC0ikjODqD1h2LZV-56">
          <mxGeometry relative="1" as="geometry" />
        </mxCell>
        <mxCell id="IrzSOC0ikjODqD1h2LZV-64" value="&lt;b style=&quot;text-wrap: nowrap; color: rgb(29, 45, 62); font-family: arial; font-size: 16px; text-align: left;&quot;&gt;ZVBCT0008&lt;/b&gt;" style="rounded=1;whiteSpace=wrap;html=1;" vertex="1" parent="1">
          <mxGeometry x="180" y="350" width="110" height="50" as="geometry" />
        </mxCell>
        <mxCell id="IrzSOC0ikjODqD1h2LZV-67" value="&lt;font face=&quot;arial&quot;&gt;&lt;span style=&quot;font-size: 16px;&quot;&gt;&lt;b&gt;Processo de alocação&lt;/b&gt;&lt;/span&gt;&lt;/font&gt;" style="text;html=1;align=center;verticalAlign=middle;resizable=0;points=[];autosize=1;strokeColor=none;fillColor=none;fontSize=12;fontColor=#1D2D3E;fontFamily=Helvetica;" vertex="1" parent="1">
          <mxGeometry x="95" y="240" width="190" height="30" as="geometry" />
        </mxCell>
      </root>
    </mxGraphModel>
  </diagram>
</mxfile>
